<svg width="96" height="98" viewBox="0 0 96 98" fill="none" xmlns="http://www.w3.org/2000/svg">
<path d="M74.969 49.7515L76.8275 48.0795L74.969 49.7516L92.3749 69.0986C93.9947 70.899 92.3643 73.7203 89.9956 73.2158L64.542 67.7947C61.3641 67.1179 58.1118 68.5643 56.486 71.3775L43.4646 93.9101C42.2529 96.007 39.0658 95.3282 38.8137 92.9196L36.1039 67.0365C35.7655 63.805 33.3849 61.1588 30.2069 60.482L4.75333 55.0608C2.38466 54.5564 2.04536 51.3156 4.2582 50.3314L28.0371 39.7559C31.0059 38.4356 32.7869 35.3537 32.4485 32.1222L29.7388 6.23913C29.4866 3.8305 32.4639 2.50633 34.0837 4.30676L51.4897 23.6538C53.6628 26.0693 57.1442 26.8108 60.113 25.4904L83.8919 14.9149C86.1047 13.9308 88.2841 16.3532 87.0723 18.4501L74.0509 40.9827C72.4252 43.7959 72.7958 47.336 74.969 49.7515Z" fill="#F7C74C" stroke="#31393E" stroke-width="5"/>
</svg>
